<svg xmlns="http://www.w3.org/2000/svg" width="37.736" height="33.749" viewBox="0 0 37.736 33.749">
    <g id="Group_46" data-name="Group 46" transform="translate(932.002 -848.703)">
        <g id="Group_45" data-name="Group 45" transform="translate(-932.002 848.703)">
            <path id="Path_7" data-name="Path 7" d="M-844.468,923.421a11.125,11.125,0,0,1,3.205-7.749,10.762,10.762,0,0,1,7.87-3.368,10.721,10.721,0,0,1,7.794,3.139,10.937,10.937,0,0,1,3.42,8.074,10.886,10.886,0,0,1-3.047,7.717,10.761,10.761,0,0,1-8.115,3.522,10.76,10.76,0,0,1-7.793-3.229A11.3,11.3,0,0,1-844.468,923.421Zm20.578.132a9.37,9.37,0,0,0-2.914-6.894,9.184,9.184,0,0,0-6.527-2.626,9.192,9.192,0,0,0-4.8,1.32,9.259,9.259,0,0,0-3.439,3.562,9.457,9.457,0,0,0-1.18,4.655,9.474,9.474,0,0,0,9.442,9.473A9.461,9.461,0,0,0-823.89,923.553Z" transform="translate(851.971 -906.852)" fill="#fff"/>
            <path id="Path_8" data-name="Path 8" d="M-927.5,864.251c.2-.288.405-.575.606-.864.171-.245.333-.5.51-.735a.829.829,0,0,1,.688-.364.885.885,0,0,1,.87.984,1,1,0,0,1-.185.527q-.65.922-1.295,1.847c-.418.6-.832,1.2-1.248,1.8-.136.2-.269.4-.41.589a.86.86,0,0,1-.8.4.73.73,0,0,1-.6-.355c-.191-.336-.369-.68-.55-1.022q-.643-1.215-1.284-2.432c-.245-.466-.5-.926-.719-1.407a.918.918,0,0,1,.455-1.206.9.9,0,0,1,1.151.476c.286.582.609,1.143.927,1.734a1.363,1.363,0,0,0,.1-.453,10.992,10.992,0,0,1,.241-1.556c.085-.419.173-.839.29-1.25.129-.452.281-.9.446-1.338.192-.511.386-1.023.62-1.512.248-.518.53-1.021.824-1.512a16.439,16.439,0,0,1,2.2-2.888,16.55,16.55,0,0,1,2.047-1.822,14.143,14.143,0,0,1,1.442-.975c.458-.263.93-.5,1.4-.733.294-.147.594-.287.9-.4.351-.134.71-.246,1.069-.357s.738-.222,1.11-.322c.194-.052.394-.079.592-.117l.726-.141a.551.551,0,0,1,.058-.011c.356-.033.712-.07,1.069-.095.293-.02.587-.037.881-.034q.852.01,1.7.046a5.925,5.925,0,0,1,.7.082c.23.037.455.114.685.136a8.48,8.48,0,0,1,.973.206c.26.056.515.146.77.225.192.06.385.121.574.192.289.107.579.216.863.336.317.133.632.273.943.422a14.49,14.49,0,0,1,1.951,1.15,16.636,16.636,0,0,1,2.489,2.107,17.414,17.414,0,0,1,1.62,1.956,18.067,18.067,0,0,1,1.62,2.786c.179.372.324.762.477,1.147a.954.954,0,0,1-.368,1.2.826.826,0,0,1-1.145-.3,4.183,4.183,0,0,1-.259-.57,14.989,14.989,0,0,0-1.539-2.9,15.352,15.352,0,0,0-1.562-1.938,13.954,13.954,0,0,0-1.974-1.731,14.325,14.325,0,0,0-2.139-1.288q-.754-.365-1.534-.655c-.316-.118-.646-.2-.971-.287-.224-.061-.453-.1-.677-.166-.314-.089-.637-.116-.954-.174a13.264,13.264,0,0,0-2.828-.141c-.325.01-.651.049-.974.091s-.642.1-.961.158c-.182.035-.361.094-.541.14-.126.033-.253.057-.377.1-.41.126-.822.246-1.227.391a9.558,9.558,0,0,0-.912.386c-.409.2-.816.4-1.212.619a13.941,13.941,0,0,0-2.334,1.679,14.712,14.712,0,0,0-2.1,2.28,14.524,14.524,0,0,0-1.4,2.279c-.251.511-.477,1.033-.679,1.569-.212.563-.382,1.139-.538,1.72-.084.313-.129.639-.191.959-.046.239-.1.478-.134.719a2.149,2.149,0,0,0-.018.6Z" transform="translate(932.002 -848.703)" fill="#fff"/>
            <path id="Path_9" data-name="Path 9" d="M-859.9,1034.044c-.36.521-.7,1.019-1.048,1.516a1,1,0,0,1-.593.458.832.832,0,0,1-.854-.311.979.979,0,0,1-.029-1.137c.411-.563.8-1.141,1.2-1.712l1.248-1.779.516-.737a.835.835,0,0,1,.879-.382.814.814,0,0,1,.589.444c.26.5.529.993.791,1.491.32.609.635,1.22.955,1.829.233.444.484.878.7,1.329a.9.9,0,0,1-.47,1.3.831.831,0,0,1-1.087-.464q-.452-.862-.9-1.725c-.009-.017-.016-.035-.023-.053l-.044.013c-.029.177-.06.354-.086.532-.052.343-.1.686-.152,1.029-.03.195-.059.39-.1.582-.057.272-.12.543-.19.812-.066.25-.14.5-.219.743-.1.3-.2.6-.306.9s-.2.568-.329.842c-.222.488-.446.976-.7,1.449a16.37,16.37,0,0,1-1.474,2.278,16.773,16.773,0,0,1-1.641,1.832,16.678,16.678,0,0,1-2.044,1.685,17.419,17.419,0,0,1-2.03,1.21c-.339.175-.7.309-1.05.453-.312.127-.625.255-.944.359-.378.124-.762.227-1.146.33-.313.084-.628.164-.945.227-.248.05-.5.071-.751.1-.2.027-.4.058-.6.08s-.4.036-.6.054c-.072.006-.143.014-.215.015-.405,0-.811.017-1.215,0-.424-.014-.848-.041-1.27-.086a10.849,10.849,0,0,1-1.075-.168c-.412-.087-.82-.2-1.228-.305-.346-.092-.694-.184-1.033-.3s-.642-.272-.969-.389a9.136,9.136,0,0,1-.955-.436,15.67,15.67,0,0,1-2.436-1.514,16.693,16.693,0,0,1-2.707-2.551,16.1,16.1,0,0,1-1.247-1.68,18.3,18.3,0,0,1-1.466-2.761c-.124-.289-.221-.591-.319-.891a.691.691,0,0,1,.087-.512.824.824,0,0,1,.821-.51.846.846,0,0,1,.784.6,15.77,15.77,0,0,0,1.554,3.069,14.95,14.95,0,0,0,2.209,2.647,13.777,13.777,0,0,0,2.272,1.764,14.71,14.71,0,0,0,1.342.757c.546.26,1.11.479,1.676.69a10.405,10.405,0,0,0,1.007.287c.312.082.624.166.94.226.287.054.582.066.87.116a10.529,10.529,0,0,0,1.779.095c.366,0,.733-.006,1.1-.037.323-.028.644-.093.965-.143q.279-.043.558-.091a4.288,4.288,0,0,0,.677-.156c.14-.049.291-.062.434-.1.212-.06.425-.12.632-.2.342-.127.682-.265,1.02-.4a13,13,0,0,0,2.03-1.069,14.312,14.312,0,0,0,1.664-1.239,14.508,14.508,0,0,0,1.641-1.652,15.321,15.321,0,0,0,1.619-2.315,16.51,16.51,0,0,0,.772-1.538c.169-.388.308-.791.449-1.191.112-.318.216-.639.306-.964.075-.273.123-.555.183-.833.043-.2.1-.395.127-.6a6.856,6.856,0,0,0,.119-1.139A.345.345,0,0,0-859.9,1034.044Z" transform="translate(893.159 -1015.898)" fill="#fff"/>
            <path id="Path_10" data-name="Path 10" d="M-743.11,979.143v2.3c.352.152.708.3,1.056.459a3.233,3.233,0,0,1,1.341.991,2.391,2.391,0,0,1,.344.727,3.13,3.13,0,0,1,.075.895,2.021,2.021,0,0,1-.463,1.232,3.13,3.13,0,0,1-.932.835,3.95,3.95,0,0,1-1.115.472,2.3,2.3,0,0,0-.279.1c-.016.231-.027.434-.044.637a.76.76,0,0,1-.4.648.986.986,0,0,1-.759.1.774.774,0,0,1-.588-.529,1.874,1.874,0,0,1-.076-.523c-.01-.3,0-.288-.3-.339a2.667,2.667,0,0,1-1.953-1.21,2.967,2.967,0,0,1-.4-1.074,3.578,3.578,0,0,1-.055-.773,1.106,1.106,0,0,1,.15-.522.9.9,0,0,1,1.545-.013,1.425,1.425,0,0,1,.18.726,1.167,1.167,0,0,0,.338.786.563.563,0,0,0,.487.2,18.425,18.425,0,0,0,.006-2.565,5.264,5.264,0,0,1-1.718-.953,2.955,2.955,0,0,1-.8-1.05,2.449,2.449,0,0,1-.2-.787,2.666,2.666,0,0,1,.935-2.188,3,3,0,0,1,1.179-.676,5.766,5.766,0,0,1,.625-.128c0-.088,0-.181,0-.275a.854.854,0,0,1,.172-.534.634.634,0,0,1,.329-.231,1.32,1.32,0,0,1,.846,0,.8.8,0,0,1,.526.753,3.757,3.757,0,0,1,0,.423c.32.165.625.3.912.475a3.541,3.541,0,0,1,1.316,1.435,2.176,2.176,0,0,1,.291.84.839.839,0,0,1-.627.967.872.872,0,0,1-1.111-.539,2.323,2.323,0,0,0-.488-.851c-.1-.093-.2-.175-.3-.262Zm-1.824,1.652a.975.975,0,0,0,.023-.133q0-.861,0-1.722a.676.676,0,0,0-.04-.15,1.7,1.7,0,0,0-.243.072,1.215,1.215,0,0,0-.64.674.742.742,0,0,0,.006.6A1.389,1.389,0,0,0-744.934,980.795Zm1.9,2.648a10.077,10.077,0,0,0,.014,1.749.66.66,0,0,0,.152-.039,2.139,2.139,0,0,0,.677-.54.325.325,0,0,0,.077-.137.636.636,0,0,0-.21-.7,1.382,1.382,0,0,0-.182-.124A1.938,1.938,0,0,0-743.034,983.443Z" transform="translate(762.651 -965.63)" fill="#fff"/>
        </g>
    </g>
</svg>