<svg xmlns="http://www.w3.org/2000/svg" width="30" height="28.586" viewBox="0 0 30 28.586">
    <g id="Group_44" data-name="Group 44" transform="translate(1745.52 -1030.012)">
        <g id="Group_43" data-name="Group 43" transform="translate(-1745.52 1030.012)">
            <path id="Path_1" data-name="Path 1" d="M-1745.52,1306.489a.453.453,0,0,0,.083-.113,1.029,1.029,0,0,1,.684-.683c.22-.076.44-.153.661-.224.282-.091.565-.177.847-.266.233-.073.464-.154.7-.22a.648.648,0,0,1,.276-.016,1.077,1.077,0,0,1,.817.553,1.026,1.026,0,0,1-.309,1.346,1.467,1.467,0,0,1-.376.182c-.232.085-.47.157-.705.233s-.456.143-.684.215c-.2.064-.406.133-.61.194a1.028,1.028,0,0,1-1.083-.294.85.85,0,0,1-.221-.4c-.008-.043-.052-.079-.079-.119Z" transform="translate(1745.52 -1288.936)" fill="#fff"/>
            <path id="Path_2" data-name="Path 2" d="M-1296.775,1306.989a1.917,1.917,0,0,1-.225.42,1,1,0,0,1-.728.379,1.5,1.5,0,0,1-.6-.106c-.339-.121-.689-.212-1.029-.331a7.348,7.348,0,0,1-1.017-.357.938.938,0,0,1-.511-.654,1.061,1.061,0,0,1-.045-.3,1.039,1.039,0,0,1,.569-.89.93.93,0,0,1,.521-.126,1.812,1.812,0,0,1,.344.071c.317.1.633.2.948.3.276.092.55.189.825.284.115.04.232.073.343.12a1.011,1.011,0,0,1,.571.649.5.5,0,0,0,.033.065Z" transform="translate(1326.775 -1288.993)" fill="#fff"/>
            <path id="Path_3" data-name="Path 3" d="M-1670.114,1056.431a2.289,2.289,0,0,1,1.18.354,2.068,2.068,0,0,1,.778.839c.24.491.467.99.7,1.485.206.438.415.874.619,1.313.14.3.272.6.41.9.164.357.335.709.492,1.069a.242.242,0,0,0,.21.156c.2.028.392.047.587.077s.361.065.542.1l.055.008c.2.025.4.046.6.076.181.027.361.066.542.1q.224.039.45.073l1,.144c.273.04.546.074.817.125a2.607,2.607,0,0,1,1,.362,2.343,2.343,0,0,1,.6.583,2.414,2.414,0,0,1,.34.66,2.2,2.2,0,0,1,.134.625,3.3,3.3,0,0,1,0,.457,5.045,5.045,0,0,1-.1.513,2.045,2.045,0,0,1-.421.823c-.132.166-.285.312-.431.464q-1.208,1.257-2.416,2.514c-.25.26-.495.527-.747.785a.232.232,0,0,0-.06.262.526.526,0,0,1,.027.1c.024.179.042.36.07.538.046.285.1.568.149.853.031.183.056.368.085.552s.063.365.094.548c.021.125.044.25.063.375.025.164.044.329.07.493s.061.355.091.533c0,.024.009.048.013.072.053.348.113.694.156,1.043a2.152,2.152,0,0,1-.021.746,4.108,4.108,0,0,1-.119.462,2.311,2.311,0,0,1-.336.627,2.231,2.231,0,0,1-.745.649,2.331,2.331,0,0,1-.63.228,2.631,2.631,0,0,1-.506.047,1.973,1.973,0,0,1-.541-.1,4.783,4.783,0,0,1-.961-.47c-.316-.171-.628-.352-.941-.528l-.823-.463-1.495-.838c-.156-.088-.314-.173-.468-.266a.19.19,0,0,0-.208-.005c-.509.289-1.018.58-1.528.868-.382.216-.766.428-1.149.642l-1.376.772a3.28,3.28,0,0,1-.7.315,1.925,1.925,0,0,1-.808.066,2.291,2.291,0,0,1-1.54-.9,2.332,2.332,0,0,1-.414-.832,2.352,2.352,0,0,1-.1-.794c.018-.224.062-.445.095-.667.019-.126.04-.251.059-.376.025-.174.047-.349.074-.523.023-.15.049-.3.073-.45q.056-.348.11-.7c.039-.246.077-.492.115-.738s.075-.472.113-.707.073-.472.113-.708c.027-.158.059-.316.091-.473a.262.262,0,0,0-.072-.262c-.441-.454-.875-.916-1.314-1.373q-1.008-1.051-2.017-2.1a2.782,2.782,0,0,1-.467-.6,2.641,2.641,0,0,1-.277-.76,3.014,3.014,0,0,1-.043-.512,2.419,2.419,0,0,1,.313-1.216,2.274,2.274,0,0,1,.734-.825,2.011,2.011,0,0,1,.62-.288,4.867,4.867,0,0,1,.647-.124c.323-.039.644-.108.966-.159.187-.03.375-.049.561-.079.209-.034.417-.074.625-.111l.068-.01c.245-.038.489-.078.734-.114.182-.027.364-.046.546-.074.2-.031.4-.068.6-.1a1.549,1.549,0,0,1,.22-.021.286.286,0,0,0,.277-.194q.292-.658.592-1.311c.158-.344.323-.685.481-1.029.243-.527.481-1.057.728-1.582.146-.312.293-.625.462-.923a2.093,2.093,0,0,1,.567-.626,1.98,1.98,0,0,1,.656-.34A6.334,6.334,0,0,1-1670.114,1056.431Zm-4.822,14.366c-.008.118-.01.236-.027.353-.031.217-.07.433-.106.649,0,.029-.011.058-.016.087-.03.173-.062.345-.089.518s-.047.338-.072.507c-.017.121-.036.242-.056.362-.036.217-.077.433-.112.65-.043.266-.083.533-.125.8-.022.14-.046.28-.07.419-.028.163-.06.326-.085.49s-.044.349-.073.523c-.025.154-.06.305-.089.458a.4.4,0,0,0,.226.421.366.366,0,0,0,.328-.057c.383-.21.763-.428,1.144-.643.318-.179.634-.36.952-.538.342-.192.686-.381,1.028-.572.419-.234.836-.472,1.257-.7a1.944,1.944,0,0,1,.689-.3.834.834,0,0,1,.231,0,1.559,1.559,0,0,1,.523.2c.528.3,1.062.592,1.593.889q.694.388,1.387.781c.422.239.843.482,1.268.714a2.049,2.049,0,0,0,.483.24.274.274,0,0,0,.294-.105.42.42,0,0,0,.077-.359c-.028-.159-.057-.318-.084-.478-.023-.135-.045-.27-.065-.405-.025-.169-.045-.339-.07-.509-.018-.125-.04-.25-.062-.375-.031-.178-.065-.354-.093-.532s-.046-.339-.07-.508c-.018-.125-.04-.25-.062-.375-.031-.173-.065-.345-.094-.518-.036-.212-.067-.426-.1-.638-.026-.164-.055-.329-.08-.493s-.037-.352-.078-.522a2.28,2.28,0,0,1-.038-.687.383.383,0,0,1,.018-.1,1.342,1.342,0,0,1,.307-.5q.464-.48.927-.961c.374-.39.745-.782,1.12-1.171q.732-.76,1.468-1.516a3.54,3.54,0,0,0,.288-.308c.144-.189.178-.3.064-.485a.408.408,0,0,0-.308-.166c-.2-.035-.4-.058-.6-.088l-1.187-.181-.055-.009c-.176-.032-.351-.069-.528-.1-.2-.03-.4-.052-.6-.077l-.041-.007c-.185-.033-.37-.069-.556-.1s-.391-.051-.587-.076c-.014,0-.027-.006-.041-.009-.194-.034-.389-.07-.583-.1-.173-.028-.347-.047-.519-.081a1.155,1.155,0,0,1-.258-.094.975.975,0,0,1-.461-.478c-.1-.215-.2-.433-.3-.65-.2-.431-.408-.859-.607-1.292-.258-.562-.509-1.127-.767-1.688q-.281-.614-.571-1.223a2.613,2.613,0,0,0-.226-.412.278.278,0,0,0-.462,0,1.114,1.114,0,0,0-.125.223q-.4.851-.8,1.7c-.2.426-.39.854-.587,1.28q-.308.667-.621,1.332c-.127.27-.25.543-.389.806a.943.943,0,0,1-.7.5c-.317.055-.636.1-.955.143l-.055.009c-.176.032-.351.069-.528.1-.2.03-.391.052-.587.077l-.041.006c-.176.033-.351.07-.528.1-.2.03-.4.051-.6.076l-.055.009c-.194.034-.389.07-.583.1-.227.037-.455.069-.683.1-.191.03-.382.057-.573.092a1.266,1.266,0,0,0-.278.072.317.317,0,0,0-.136.437,2.652,2.652,0,0,0,.166.228q.787.825,1.58,1.645c.7.729,1.409,1.454,2.11,2.185A1.118,1.118,0,0,1-1674.936,1070.8Z" transform="translate(1685.13 -1054.806)" fill="#fff"/>
            <path id="Path_4" data-name="Path 4" d="M-1370.137,1033.84a1.042,1.042,0,0,1-.985-.661.967.967,0,0,1-.066-.519,1.133,1.133,0,0,1,.206-.492c.33-.457.665-.911,1-1.366.106-.144.206-.293.323-.428a.971.971,0,0,1,.849-.349,1.044,1.044,0,0,1,.963,1.147,1.459,1.459,0,0,1-.34.731c-.32.445-.645.886-.969,1.328a1.689,1.689,0,0,1-.365.411A.982.982,0,0,1-1370.137,1033.84Z" transform="translate(1392.994 -1030.021)" fill="#fff"/>
            <path id="Path_5" data-name="Path 5" d="M-1659.191,1033.832a1.03,1.03,0,0,1-.87-.455c-.359-.49-.722-.978-1.077-1.471a3.49,3.49,0,0,1-.268-.447.925.925,0,0,1-.071-.541.952.952,0,0,1,.257-.558,1,1,0,0,1,.911-.337,1.1,1.1,0,0,1,.754.48c.3.423.615.84.918,1.263a6.03,6.03,0,0,1,.375.568.924.924,0,0,1,.07.735,1.039,1.039,0,0,1-.546.663A.942.942,0,0,1-1659.191,1033.832Z" transform="translate(1666.379 -1030.012)" fill="#fff"/>
            <path id="Path_6" data-name="Path 6" d="M-1506.13,1451.262c0-.364-.006-.728,0-1.092a1,1,0,0,1,.569-.9,1.029,1.029,0,0,1,1.428.5.956.956,0,0,1,.1.412c0,.723,0,1.446,0,2.169a1.026,1.026,0,0,1-.661.953,1.03,1.03,0,0,1-1.314-.506.963.963,0,0,1-.116-.445c0-.364,0-.728,0-1.092Z" transform="translate(1520.105 -1424.794)" fill="#fff"/>
        </g>
    </g>
</svg>
