<svg xmlns="http://www.w3.org/2000/svg" width="22.521" height="26.692" viewBox="0 0 22.521 26.692">
    <path id="Path_11" data-name="Path 11" d="M61.879,4.322,51.661.08a1.043,1.043,0,0,0-.8,0L40.643,4.322A1.043,1.043,0,0,0,40,5.285v5.157A17.461,17.461,0,0,0,50.867,26.615a1.043,1.043,0,0,0,.788,0A17.461,17.461,0,0,0,62.521,10.442V5.285A1.043,1.043,0,0,0,61.879,4.322Zm-1.442,6.12a15.379,15.379,0,0,1-9.175,14.075,15.38,15.38,0,0,1-9.175-14.075V5.981l9.175-3.81,9.175,3.81ZM50.108,13.957,54.59,9.475a1.043,1.043,0,1,1,1.474,1.475l-5.219,5.219a1.043,1.043,0,0,1-1.475,0l-2.914-2.914a1.043,1.043,0,0,1,1.475-1.475Z" transform="translate(-40 0)" fill="#fff"/>
</svg>
